<svg width="929" height="349" fill="none" xmlns="http://www.w3.org/2000/svg">
  <path fill-rule="evenodd" clip-rule="evenodd" d="M680.3 217h-36.9l42.6 98-5.7-98z" fill="#413998" stroke="#413998"/>
  <path d="M783 348.5L686 315l-5.7-98h39.2L783 348.5z" fill="#5A52AA"/>
  <path fill-rule="evenodd" clip-rule="evenodd" d="M816.9 217h-97.4L783 348.5l18-33.5 15.9-98z" fill="#9188DA"/>
  <path d="M757.3 143.9l-1.7.5c-.4.3-4.7 3.5-9.5 7.4l-9.7 7.6c-1.6 1-1.5 1-10 1.2l-7.7.1-1.6-.3c-1.6-.3-1.8-.4-12.8-7.2l-11.8-7.2a9 9 0 00-4.1-.8c-1.3 0-36 4.9-37.3 5.2-1.4.4-2 1-2 2l.2 1 2.9 15.6-1 .7a115.2 115.2 0 01-14.6 4.6c-2.4.3-2.7.3-22.5-3.2-20.3-3.6-19.7-3.5-22.1-3-1.2.2-24 12.3-24.5 13a1 1 0 00-.2.4c0 .2 0 .3.2.5.2.3 4.7 3 12.3 7.2 10.4 5.9 12 6.9 12.4 7.4l.2.6c0 .5-.8 1.3-3.8 4.3-3.5 3.6-4.3 4.2-6.7 4.5l-20.6 1.7c-20.3 1.5-20.4 1.6-21.8 2.3-1.4.8-4.5 12.6-4.5 16 0 .6 0 .9.3 1a2664.8 2664.8 0 0039.7 6.3c2 .5 2.5 1 4.4 5.4 1 2.2 1.7 4.3 1.7 4.6 0 .4-.3.9-.7 1.2-.5.4-5.2 2.3-15.1 6.3l-15.1 6c-.4.4-.6.7-.6 1v.1a152.3 152.3 0 0016.5 14l2.2.5c1.2.1 2.6 0 20.5-1.7 20-2 20.8-2 23-1.5a210 210 0 0116.4 7.2c.4.3.7.6.7 1 0 .8-.8 2-2.8 5.3-5.7 9.6-6.8 11.4-6.8 12 0 .1 0 .2.2.3.2.3.5.6 1 .9.4.2 7.4 2 15.7 4 13.6 3.2 15.2 3.5 16.5 3.5.8 0 1.6 0 2.3-.2l14.6-6.2c4.7-2.1 9.7-4.2 14.8-6.1 2.2-.6 2.9-.5 14.1.5l11.3 1.2c2.1.6 2.3.8 8.8 9.1 6.2 8 6.4 8.1 7.5 8.6.7.2 1.7.5 2.4.5 2.8.2 20.2-.2 31.4-.8 5-.3 6-.5 7-1.5l4.4-8.7c2.7-5.3 4.2-8.2 4.6-8.5 1.2-.8 2-1 11.5-2.5 10-1.6 11.4-1.8 13.6-1.3l15.7 5.3 15.6 5.3c.7.2 1.4.2 2.5.2 1.6 0 2-.2 10.8-3 17.9-5.8 19.6-6.3 20.2-6.7.3-.2.6-.6.7-1 .2-.6-.5-1.3-7-8.6a161.5 161.5 0 01-7.3-8.8c0-.7 1-1.4 5.4-4l5.4-3c1.1-.6 3-.9 4.7-.9l20.3.9 18.9.9 1.3-.3 1.8-.5a344 344 0 0013.3-15.5c0-.6-.5-1-1.6-1.5-.7-.3-8.3-2.8-17-5.5-15.6-4.9-15.8-5-16.5-5.7l-.8-.7.4-2.8c.5-3.7.5-3.8 1.7-4.5.9-.6 1.6-.8 18.8-4.4l18.4-4c.7-.3 1.7-1.2 1.7-1.5 0-.6-8-16-8.5-16.3-.3-.3-1-.6-1.6-.8-1.3-.3 0-.3-31.1-1.1-12-.3-12.2-.4-14-1.1-1.4-.5-6.9-5-7.1-5.7v-.3c0-.3 0-.5.2-.8 3.4-2.6 7-5.2 10.6-7.7 9.6-7 10-7.3 10-8 0-.3-.2-.7-.4-.9-.4-.3-26.1-11.5-27.6-12-.7-.2-1.6-.3-2.5-.3h-1.7l-17.3 4-18.6 4.3c-2.1.3-3.5.1-9.2-1.2-5.8-1.4-6.4-1.6-7.3-2.4-.8-.6-.8-.4-1.5-9.8-.6-7.7-.7-8-1.3-8.5-1.2-1 1-.7-30.3-4l-10.3-.9-1.6.2zm-11.8 34.7c24 1.2 46.4 5.6 64.2 12.5 17.7 7 30 16.1 34.9 26.1 1.7 3.7 2.1 5.5 2.1 9.8 0 4 0 5-1.3 8.3a46 46 0 01-21.1 21c-10.8 6.2-25 11.2-41.2 14.7a241.3 241.3 0 01-65.3 4.8c-26-1.4-50.2-6.6-68.5-14.6a72.5 72.5 0 01-24.8-16.5 25.4 25.4 0 01-7.6-19.4c.6-6.6 4.4-13 11-19a88 88 0 0127.7-15.8c18.6-7 42-11.2 66.7-12.1 4.6-.2 18.7 0 23.2.2z" fill="#BA8512"/>
  <path d="M757.3 121.2l1.6-.2v22.7l-1.6.2v-22.7z" fill="#BA8512"/>
  <path d="M755.6 121.7l1.7-.5v22.7l-1.7.5v-22.7zM759 121l10.2 1v22.7l-10.3-1V121zM688.4 122.4a9 9 0 014 .9V146a9 9 0 00-4-.8v-22.8zM769.2 122c31.4 3.1 29.1 2.9 30.3 3.8v22.8c-1.2-1 1-.7-30.3-4V122zM651.1 127.7c1.2-.3 36-5.3 37.3-5.3v22.8c-1.3 0-36 4.9-37.3 5.2v-22.7zM746.1 129l9.5-7.3v22.7c-.4.3-4.7 3.5-9.5 7.4V129zM692.5 123.3l11.8 7.2v22.7l-11.8-7.2v-22.7z" fill="#BA8512"/>
  <path d="M649.2 129.7c0-1 .5-1.6 2-2v22.7c-1.5.4-2 1-2 2v-22.7zM799.5 125.8c.6.6.7.9 1.3 8.6v22.7c-.6-7.7-.7-8-1.3-8.5v-22.8z" fill="#BA8512"/>
  <path d="M649.3 130.8l-.1-1v22.6l.1 1v-22.6zM736.4 136.7l9.7-7.7v22.8l-9.7 7.6v-22.7zM704.3 130.5c11 6.7 11.2 6.8 12.8 7.2v22.7c-1.6-.3-1.8-.4-12.8-7.2v-22.7zM726.3 137.9c8.6-.2 8.5-.1 10.1-1.2v22.7c-1.6 1-1.5 1-10 1.2v-22.7zM717.1 137.7l1.6.3v22.7l-1.6-.3v-22.7z" fill="#BA8512"/>
  <path d="M718.7 138l7.6-.1v22.7l-7.6.1V138zM652.2 146.2l-2.9-15.4v22.7l2.9 15.5v-22.8zM800.8 134.4c.7 9.3.7 9.2 1.5 9.8V167c-.8-.6-.8-.4-1.5-9.8v-22.7zM854.7 139.4h1.7v22.8h-1.7v-22.8z" fill="#BA8512"/>
  <path d="M856.4 139.5c1 0 1.8 0 2.5.3v22.7c-.7-.2-1.6-.3-2.5-.3v-22.7zM837.4 143.5l17.3-4V162l-17.3 4.1v-22.7zM802.3 144.2c.9.8 1.5 1 7.3 2.3v22.8c-5.8-1.4-6.4-1.6-7.3-2.4v-22.7zM818.8 147.8l18.6-4.3v22.7l-18.6 4.3v-22.7zM859 139.8c1.4.5 27.1 11.7 27.5 12v22.7c-.4-.3-26.1-11.5-27.6-12v-22.7zM651.3 147l.9-.8V169l-1 .7V147zM592 145.4c2.4-.5 1.8-.6 22 3V171c-20.2-3.6-19.6-3.5-22-3v-22.7z" fill="#BA8512"/>
  <path d="M809.6 146.5c5.7 1.4 7 1.6 9.2 1.3v22.7c-2.1.3-3.5.1-9.2-1.2v-22.8zM644 149.6c6.1-1.8 6.4-1.9 7.3-2.6v22.7c-.9.7-1.2.8-7.2 2.6v-22.7zM614 148.4c19.9 3.5 20.2 3.5 22.7 3.2v22.7c-2.5.3-2.8.3-22.6-3.2v-22.7z" fill="#BA8512"/>
  <path d="M636.7 151.6l7.4-2v22.7l-7.4 2v-22.7zM567.5 158.3c.5-.6 23.3-12.7 24.5-13v22.8c-1.2.2-24 12.3-24.5 13v-22.8zM886.5 151.8c.2.2.4.6.4 1v22.7c0-.4-.2-.8-.4-1v-22.7z" fill="#BA8512"/>
  <path d="M745.5 155.8c-4.5-.2-18.6-.3-23.2-.1v22.7c4.6-.2 18.7 0 23.2.2v-22.8z" fill="#A37208"/>
  <path d="M887 152.8c0 .6-.5 1-10.1 7.9v22.7c9.6-7 10-7.3 10-8v-22.6z" fill="#E2A92D"/>
  <path d="M567.3 158.8c0-.2 0-.3.2-.5V181a1 1 0 00-.2.5v-22.7z" fill="#BA8512"/>
  <path d="M567.5 159.3a1 1 0 01-.2-.5v22.7c0 .2 0 .3.2.5v-22.7z" fill="#BA8512"/>
  <path d="M722.3 155.7c-24.7.9-48 5.1-66.7 12.1v22.7c18.6-7 42-11.2 66.7-12.1v-22.7z" fill="#A4730A"/>
  <path d="M809.7 168.4c-17.8-7-40.3-11.3-64.2-12.6v22.8c24 1.2 46.4 5.6 64.2 12.5v-22.7zM579.8 166.5a172 172 0 01-12.3-7.2V182c.2.3 4.7 3 12.3 7.2v-22.7z" fill="#A37208"/>
  <path d="M876.9 160.7a290 290 0 00-10.6 7.7v22.7c3.4-2.6 7-5.2 10.6-7.7v-22.7z" fill="#E8AB28"/>
  <path d="M866.3 168.4c-.1.2-.3.5-.3.8V192c0-.3.2-.5.3-.8v-22.7z" fill="#BA8512"/>
  <path d="M866 169.2l.1.3V192v-22.7z" fill="#BA8512"/>
  <path d="M592.2 174c-.3-.7-2-1.6-12.4-7.5v22.7c10.4 5.9 12 6.9 12.4 7.4V174z" fill="#A37208"/>
  <path d="M866.1 169.5c.2.7 5.7 5.2 7 5.7v22.7c-1.3-.5-6.8-5-7-5.7v-22.7zM592.4 174.5l-.2-.6v22.7l.2.6v-22.7z" fill="#BA8512"/>
  <path d="M655.6 167.8a88 88 0 00-27.7 15.7v22.7a88 88 0 0127.7-15.7v-22.7z" fill="#BD8918"/>
  <path d="M655.6 167.8a88 88 0 00-27.7 15.7v22.7a88 88 0 0127.7-15.7v-22.7z" fill="url(#paint0_linear)"/>
  <path d="M873.2 175.2c1.8.7 2 .7 14 1V199c-12-.3-12.2-.4-14-1.1v-22.7zM588.6 178.8c3-3 3.8-3.8 3.8-4.3v22.7c0 .5-.8 1.3-3.8 4.3v-22.7z" fill="#BA8512"/>
  <path d="M887.1 176.3c31.2.8 29.9.8 31.2 1.1v22.7c-1.3-.3 0-.3-31.1-1.1v-22.7z" fill="#BA8512"/>
  <path d="M918.3 177.4c.6.2 1.3.5 1.6.8v22.7c-.3-.3-1-.6-1.6-.8v-22.7zM581.9 183.3c2.4-.4 3.2-.9 6.7-4.5v22.7c-3.5 3.6-4.3 4.2-6.7 4.5v-22.7z" fill="#BA8512"/>
  <path d="M844.6 194.5c-5-10-17.2-19.1-35-26V191c17.8 7 30 16.1 35 26.1v-22.7z" fill="#A37208"/>
  <path d="M561.3 185l20.6-1.7V206l-20.6 1.7V185zM539.5 187.3c1.4-.8 1.5-.8 21.8-2.3v22.7c-20.3 1.5-20.4 1.6-21.8 2.3v-22.7zM920 178.2c.4.4 8.4 15.7 8.4 16.3v22.7c0-.6-8-16-8.5-16.3v-22.7z" fill="#BA8512"/>
  <path d="M628 183.5a29.8 29.8 0 00-11 19v22.8c.5-6.6 4.3-13 11-19v-22.8z" fill="#D19410"/>
  <path d="M928.4 194.5c0 .3-1 1.2-1.7 1.4v22.8c.7-.3 1.7-1.2 1.7-1.5v-22.7z" fill="#D69710"/>
  <path d="M535 203.3c0-3.4 3.1-15.2 4.5-16V210c-1.4.8-4.5 12.6-4.5 16v-22.7z" fill="#BA8512"/>
  <path d="M926.7 196l-18.4 4v22.7l18.4-4v-22.8z" fill="#D29612"/>
  <path d="M846.7 204.3c0-4.3-.4-6-2.1-9.8v22.7c1.7 3.7 2.1 5.5 2.1 9.8v-22.7z" fill="#A37208"/>
  <path d="M908.3 200c-17.2 3.6-18 3.8-18.8 4.4V227c.9-.6 1.6-.8 18.8-4.4v-22.8z" fill="#CC9213"/>
  <path d="M535.3 204.2c-.2 0-.3-.3-.3-.9V226c0 .6 0 .9.3 1v-22.8z" fill="#A37208"/>
  <path d="M554.8 207.3l-19.5-3v22.6l19.5 3.1v-22.7zM889.5 204.4c-1.2.7-1.2.8-1.7 4.5v22.7c.5-3.7.5-3.8 1.7-4.5v-22.7zM846.7 204.3V227c0 4 0 5-1.3 8.3v-22.7c1-2.8 1.3-4 1.3-6.8v-1.5zM575 210.6c-.5-.2-9.6-1.6-20.2-3.3V230c10.6 1.7 19.7 3.1 20.2 3.3v-22.7zM887.8 209l-.4 2.7v22.7l.4-2.8V209z" fill="#BA8512"/>
  <path d="M887.4 211.7l.8.7v22.7l-.8-.7v-22.7zM617 206.3c.4 5.4 3 10.6 7.5 15.7v22.7a25.4 25.4 0 01-7.6-19.4v-19-3.7 3.7z" fill="#BA8512"/>
  <path d="M579.4 216c-1.9-4.4-2.3-5-4.4-5.4v22.7c2 .5 2.5 1 4.4 5.4V216z" fill="#A37208"/>
  <path d="M888.2 212.4c.7.8 1 .8 16.5 5.7v22.7c-15.6-4.9-15.8-5-16.5-5.7v-22.7z" fill="#BA8512"/>
  <path d="M581 220.6c0-.3-.7-2.4-1.6-4.6v22.7c1 2.2 1.7 4.3 1.7 4.6v-22.7z" fill="#A37208"/>
  <path d="M904.7 218.1l17 5.4v22.8c-.7-.3-8.3-2.8-17-5.5v-22.7zM580.4 221.8c.4-.3.7-.8.7-1.2v22.7c0 .4-.3.9-.7 1.2v-22.7zM824.3 233.6a46 46 0 0021-21v22.7a46 46 0 01-21 21v-22.7zM921.7 223.5c1 .5 1.6 1 1.6 1.5v22.8c0-.6-.5-1-1.6-1.5v-22.8zM565.3 228c10-3.9 14.6-5.8 15-6.2v22.7c-.4.4-5 2.3-15 6.3V228z" fill="#BA8512"/>
  <path d="M923.3 225c0 .3-.1.5-.3.8v22.7l.3-.7V225zM624.5 222c5.5 6.1 14 11.8 24.8 16.5v22.7a72.5 72.5 0 01-24.8-16.5V222zM550.2 234.2c.3-.2 7-3 15-6.1v22.7l-15 6v-22.6z" fill="#BA8512"/>
  <path d="M923 225.8a344 344 0 01-13 14.8v22.7a344 344 0 0013-14.8v-22.7z" fill="#D69710"/>
  <path d="M549.6 235c0-.2.2-.5.6-.8v22.7c-.4.3-.6.6-.6.9v-22.7zM549.6 235.2v-.1 22.8-22.7z" fill="#BA8512"/>
  <path d="M557.5 242.3c-7-5.8-7.9-6.5-7.9-7v22.6c0 .6.8 1.3 7.9 7.2v-22.8z" fill="#A37208"/>
  <path d="M867.7 239.6c-1.8 0-3.6.3-4.7.8v22.8c1.1-.6 3-.9 4.7-.9v-22.7z" fill="#AB7A0E"/>
  <path d="M888 240.5a1636 1636 0 00-20.3-.9v22.7l20.3.9v-22.7z" fill="#A37208"/>
  <path d="M910 240.6l-1.8.5v22.7l1.8-.5v-22.7z" fill="#BA8512"/>
  <path d="M906.9 241.3l-18.9-.8v22.7l18.9.9v-22.8z" fill="#A37208"/>
  <path d="M783.1 248.3c16.3-3.5 30.4-8.5 41.2-14.7v22.7c-10.8 6.2-25 11.2-41.2 14.7v-22.7z" fill="#BA8512"/>
  <path d="M908.2 241l-1.4.3v22.8l1.4-.3v-22.7z" fill="#AB7A0E"/>
  <path d="M863 240.4c-1.9 1-3.7 2-5.4 3.1v22.7l5.4-3v-22.8zM857.6 243.5c-4.3 2.5-5.4 3.3-5.4 4v22.7c0-.7 1-1.4 5.4-4v-22.7z" fill="#BA8512"/>
  <path d="M566.2 249.2c-3-2.3-6-4.5-8.7-6.9v22.8c2.7 2.3 5.6 4.6 8.7 6.8v-22.7z" fill="#A37208"/>
  <path d="M649.3 238.5c18.3 8 42.5 13.2 68.5 14.6v22.7c-26-1.4-50.2-6.6-68.5-14.6v-22.7zM611.8 246.5c-2.2-.5-3-.4-23 1.5v22.7c20-2 20.8-2 23-1.5v-22.7zM852.2 247.5v22.7-22.7zM588.8 248a182 182 0 01-20.5 1.7v22.7c1.2.1 2.6 0 20.5-1.7V248z" fill="#BA8512"/>
  <path d="M568.3 249.7c-.7 0-1.7-.3-2.1-.5v22.7l2 .5v-22.7z" fill="#B37D0A"/>
  <path d="M628.2 253.7c-.9-.7-15.2-7-16.4-7.2v22.7a210 210 0 0116.4 7.2v-22.7z" fill="#A37208"/>
  <path d="M744.9 253.1c13.3-.6 26.3-2.3 38.2-4.8V271c-12 2.5-24.9 4.2-38.2 4.8v-22.7zM852.2 247.9c2.3 2.8 4.7 5.6 7.3 8.4V279c-2.6-2.8-5-5.6-7.3-8.4v-22.7zM717.8 253c9 .4 18 .4 27 .1v22.7c-9 .3-18 .3-27 0V253zM628.9 254.7c0-.5-.3-.7-.7-1v22.7c.4.3.7.6.7 1v-22.7z" fill="#BA8512"/>
  <path d="M626.1 260c2-3.2 2.8-4.6 2.8-5.3v22.7c0 .8-.8 2-2.8 5.3V260zM859.5 256.3c6.5 7.3 7.2 8 7 8.6v22.7-.3a50 50 0 00-7-8.3v-22.7z" fill="#BA8512"/>
  <path d="M866.5 265c0 .3-.4.7-.7.9v22.7c.3-.2.6-.6.7-1V265z" fill="#D69710"/>
  <path d="M801 264.8c-2.2-.5-3.5-.4-13.6 1.3v22.7c10-1.6 11.4-1.8 13.6-1.3v-22.7zM626 260.2l.1-.2V283a73.2 73.2 0 00-6.8 11.8V272c0-.6 1-2.4 6.7-11.8zM787.4 266c-9.4 1.6-10.3 1.8-11.5 2.6v22.7c1.2-.8 2-1 11.5-2.5v-22.7z" fill="#BA8512"/>
  <path d="M816.7 270.1l-15.7-5.3v22.7l15.7 5.3v-22.7zM698.5 268.7c-11.2-1-11.9-1-14.1-.6V291c2.2-.6 2.9-.5 14.1.5v-22.7z" fill="#A37208"/>
  <path d="M865.8 265.9c-.6.3-2.3 1-20.2 6.7v22.7c17.9-5.8 19.6-6.3 20.2-6.7v-22.7z" fill="#D69710"/>
  <path d="M709.8 270c-.4-.2-5.5-.7-11.3-1.3v22.7l11.3 1.2V270z" fill="#A37208"/>
  <path d="M684.4 268.1c-5.1 2-10 4-14.8 6.2V297c4.7-2.1 9.7-4.2 14.8-6.1V268z" fill="#D69710"/>
  <path d="M619.5 272.3l-.2-.3v22.7c0 .1 0 .2.2.3v-22.7z" fill="#BA8512"/>
  <path d="M832.3 275.4l-15.6-5.3v22.7l15.6 5.3v-22.7zM620.5 273.2a3 3 0 01-1-.9V295c.2.3.5.6 1 .9v-22.7z" fill="#A37208"/>
  <path d="M775.9 268.6c-.4.3-2 3.2-4.6 8.5v22.7c2.7-5.3 4.2-8.2 4.6-8.5v-22.7zM845.6 272.6c-8.9 2.8-9.2 3-10.8 3v22.7c1.6 0 2-.2 10.8-3v-22.7z" fill="#D69710"/>
  <path d="M718.6 279c-6.5-8.4-6.7-8.5-8.8-9v22.6c2.1.6 2.3.8 8.8 9.1V279zM636.2 277.1c-8.3-2-15.3-3.7-15.7-4V296c.4.2 7.4 2 15.7 4V277z" fill="#A37208"/>
  <path d="M834.8 275.6c-1.1 0-1.8 0-2.5-.2V298c.7.2 1.4.2 2.5.2v-22.7z" fill="#BF880F"/>
  <path d="M669.6 274.3c-7.5 3.3-14 6-14.6 6.2v22.7l14.6-6.2v-22.7z" fill="#D69710"/>
  <path d="M652.7 280.7c-1.3 0-2.9-.3-16.5-3.6v22.7c13.6 3.3 15.2 3.6 16.5 3.6v-22.7z" fill="#A37208"/>
  <path d="M655 280.5l-2.3.2v22.7c.8 0 1.6 0 2.3-.2v-22.7z" fill="#BA8512"/>
  <path d="M771.3 277.1c-2.2 4.5-4.2 8.4-4.5 8.7v22.7c.3-.3 2.3-4.2 4.5-8.7v-22.7z" fill="#D69710"/>
  <path d="M726.1 287.6c-1.1-.5-1.3-.7-7.5-8.6v22.7c6.2 8 6.4 8.1 7.5 8.6v-22.7z" fill="#A37208"/>
  <path d="M766.8 285.8c-.8 1-2 1.2-7 1.5V310c5-.3 6.2-.5 7-1.5v-22.7z" fill="#BF8B1B"/>
  <path d="M759.9 287.3c-11.2.6-28.6 1-31.4.8v22.7c2.8.2 20.2-.2 31.4-.8v-22.7z" fill="#BA8512"/>
  <path d="M728.5 288.1c-.7 0-1.7-.3-2.4-.5v22.7c.7.2 1.7.5 2.4.5v-22.7z" fill="#B58214"/>
  <path d="M757.3 121.2c-.5 0-1.3.3-1.7.5l-9.5 7.3a559 559 0 01-9.7 7.7c-1.6 1-1.5 1-10 1.2l-7.7.1-1.6-.3c-1.6-.4-1.8-.5-12.8-7.2l-11.8-7.2a9 9 0 00-4.1-.9c-1.3 0-36 5-37.3 5.3-1.8.5-2.1 1.2-1.8 3l2.5 13.5.4 2-1 .8a115.8 115.8 0 01-14.6 4.6c-2.4.3-2.7.3-22.5-3.2-20.3-3.6-19.7-3.5-22.1-3-1.2.2-24 12.3-24.5 12.9-.3.4-.3.6 0 1 .2.3 4.7 3 12.3 7.2 10.4 5.9 12 6.8 12.4 7.4.4.9.4.9-3.6 5-3.5 3.5-4.3 4-6.7 4.4l-20.6 1.7c-20.3 1.5-20.4 1.5-21.8 2.3-1.6 1-5.5 16.6-4.2 17a2698.9 2698.9 0 0039.7 6.3c2 .5 2.5 1 4.4 5.4 1 2.2 1.7 4.3 1.7 4.6 0 .4-.3.9-.7 1.2-.5.4-5.2 2.3-15.1 6.3l-15.1 6c-.4.4-.6.8-.6 1.1a153.2 153.2 0 0016.5 14l2.2.5c1.2.1 2.6 0 20.5-1.7 20-2 20.8-2 23-1.5 1.2.2 15.5 6.5 16.4 7.2 1.1.9 1 1.1-2 6.3-7.3 12-7.1 11.8-6.7 12.3.2.3.5.6 1 .9.4.2 7.4 2 15.7 3.9 13.6 3.3 15.2 3.6 16.5 3.6.8 0 1.6 0 2.3-.2l14.6-6.2c4.7-2.1 9.7-4.2 14.8-6.2 2.2-.5 2.9-.4 14.1.6l11.3 1.2c2.1.6 2.3.7 8.8 9.1 6.2 7.9 6.4 8.1 7.5 8.6l2.4.5c2.8.2 20.2-.2 31.4-.8 5-.3 6-.5 7-1.5l4.4-8.7c2.7-5.3 4.2-8.2 4.6-8.5 1.2-.8 2-1 11.5-2.5 10-1.7 11.4-1.8 13.6-1.3l15.7 5.3 15.6 5.3 2.5.2c1.6 0 2-.2 10.8-3 17.9-5.8 19.6-6.4 20.2-6.7.3-.2.6-.6.7-1 .2-.6-.5-1.3-7-8.6-2.6-2.8-5-5.6-7.3-8.4-.3-1 .4-1.5 5.4-4.4l5.4-3c1.1-.6 3-1 4.7-.9l20.3.9 18.9.8 1.3-.2 1.8-.5a344 344 0 0013-14.8c.7-.9.2-1.6-1.3-2.3l-17-5.4c-15.6-4.9-15.8-5-16.5-5.7l-.8-.7.4-2.8c.5-3.7.5-3.8 1.7-4.5.9-.6 1.6-.8 18.8-4.5 9.9-2 18.1-3.9 18.4-4 .7-.2 1.7-1 1.7-1.4 0-.6-8-16-8.5-16.3-.3-.3-1-.6-1.6-.8-1.3-.3 0-.3-31.1-1.1-12-.4-12.2-.4-14-1.1-1.4-.5-6.9-5-7.1-5.7-.1-.3 0-.8.2-1a290 290 0 0110.6-7.8c9.6-7 10-7.3 10-8 0-.3-.2-.7-.4-.9-.4-.3-26.1-11.5-27.6-12-.7-.2-1.6-.3-2.5-.3h-1.7l-17.3 4-18.6 4.3c-2.1.3-3.5.1-9.2-1.3-5.8-1.3-6.4-1.5-7.3-2.3-.8-.6-.8-.5-1.5-9.8-.6-7.7-.7-8-1.3-8.6-1.2-1 1-.7-30.3-3.8l-10.3-1c-.3 0-1 0-1.6.2zm-11.8 34.6c24 1.3 46.4 5.7 64.2 12.6 17.7 7 30 16 34.9 26.1 1.7 3.7 2.1 5.5 2.1 9.8 0 4 0 5-1.3 8.3a46 46 0 01-21.1 21c-10.8 6.2-25 11.2-41.2 14.7a241.4 241.4 0 01-65.3 4.8c-26-1.4-50.2-6.6-68.5-14.6a72.5 72.5 0 01-24.8-16.5 25.4 25.4 0 01-7.6-19.4c.6-6.6 4.4-13.1 11-19a88 88 0 0127.7-15.8c18.6-7 42-11.2 66.7-12.1 4.6-.2 18.7-.1 23.2.1z" fill="#FFBC56"/>
  <path d="M773.5 0L769 51l68 41.5L773.5 0z" fill="#BBB4F1"/>
  <path d="M674.5 124.8L769 51l68 41.5L816.9 217l-1.3 7.5H723l-3.5-7.5-45-92.2z" fill="#9188DA"/>
  <path d="M675 125l94-74 4.5-51-111 61.5L675 125z" fill="#5A52AA"/>
  <path d="M662.4 63l12.6 61 5.3 90.5.3 5h-36.1L618 157l44.4-94z" fill="#413998" stroke="#413998"/>
  <path d="M680.3 217l-5-92.4 44.2 92.4 1.4 3h-40.4l-.2-3z" fill="#5A52AA"/>
  <path d="M76.2 132c0 5.2-.9 10-2.7 14.3a34.3 34.3 0 01-32.7 21.4 36.7 36.7 0 01-25.3-10A35 35 0 015.4 132c0-5.2.9-10 2.7-14.3a34 34 0 0132.7-21.4A36 36 0 0166 106.5c3.2 3.1 5.7 6.9 7.5 11.2 1.8 4.4 2.7 9.1 2.7 14.3zm-7.3 0c0-4-.6-7.7-1.9-11.3a27.8 27.8 0 00-14.5-16 27.6 27.6 0 00-11.7-2.3 26.5 26.5 0 00-20.6 9 27.8 27.8 0 00-5.6 9.3 33.4 33.4 0 005.6 32 27.1 27.1 0 0020.6 8.9 27.6 27.6 0 0020.6-8.8c2.5-2.7 4.3-5.9 5.6-9.5 1.3-3.5 2-7.3 2-11.3zm21.7-34h20.2c2.6 0 5.2.3 7.8.9 2.6.5 5 1.4 7 2.8 2.1 1.3 3.8 3 5.1 5.3 1.4 2.2 2 5 2 8.4a14.5 14.5 0 01-12 14.6v.2c4.4.5 8 2.2 11 5.2 3 2.9 4.4 6.8 4.4 11.8a16.8 16.8 0 01-6.8 13.7 24.9 24.9 0 01-8 3.8c-3.1.9-6.6 1.3-10.6 1.3H90.6V98zm6.9 29.8h14c1.6 0 3.2-.2 5-.6 1.6-.4 3.2-1 4.6-1.9 1.4-1 2.5-2.2 3.4-3.7a11 11 0 001.3-5.7c0-2.2-.4-4-1.3-5.5s-2-2.8-3.5-3.7c-1.5-1-3.2-1.7-5.2-2-2-.5-4-.7-6.3-.7h-12v23.8zm0 32.2h12.9c2.5 0 4.8-.2 7-.6 2.4-.5 4.4-1.3 6-2.3a11.8 11.8 0 005.7-10.3c0-4.5-1.6-7.8-4.6-10-3-2.2-7.3-3.3-12.9-3.3H97.5V160zm87-51c-1.4-2-3.3-3.7-5.6-5a17 17 0 00-8.4-1.8c-1.6 0-3.3.2-5 .7a14.2 14.2 0 00-8.2 6.4c-.9 1.6-1.3 3.5-1.3 5.6a10.4 10.4 0 004.5 9c1.5 1 3 1.8 4.8 2.5a277 277 0 0012.6 4.4c2.5.9 4.6 2 6.5 3.5 2 1.4 3.5 3.3 4.8 5.5a17 17 0 011.8 8.3 18.4 18.4 0 01-14.2 18.5 28.2 28.2 0 01-14.1.5 26 26 0 01-11-5 23 23 0 01-4.3-4.5l6-4.4c1.4 2.5 3.5 4.5 6 6.2a19.2 19.2 0 0014.7 1.6c1.9-.6 3.5-1.4 4.9-2.5 1.4-1.1 2.6-2.5 3.5-4.1 1-1.7 1.5-3.6 1.5-5.8 0-2.3-.5-4.3-1.5-5.8-.9-1.6-2-3-3.6-4s-3.3-2-5.3-2.7c-2-.7-4-1.4-6.2-2l-6.7-2.5c-2.1-.9-4-2-5.8-3.4a17.5 17.5 0 01-4.2-5.4c-1-2.1-1.6-4.7-1.6-7.8 0-3.2.7-6 2-8.4 1.3-2.4 3-4.3 5.1-5.9 2.1-1.5 4.5-2.6 7-3.3a28.5 28.5 0 0119.4 1.4c3.3 1.6 5.8 3.5 7.4 5.8l-5.5 4.4zm28.2 57h-6.9V98h7v68zm18-68h22.6c4.2 0 8.5.7 12.7 2.1a34 34 0 0119.8 17.1c2.2 4.3 3.2 9.2 3.2 14.8a32.7 32.7 0 01-23 31.9 39.9 39.9 0 01-12.7 2.1h-22.6V98zm7 61.9h13.7a34 34 0 0013.3-2.4 25.6 25.6 0 0015-15.2 28.4 28.4 0 00-5.5-29.4 27.5 27.5 0 00-9.5-6.3 34 34 0 00-13.3-2.4h-13.7v55.7zm72.6 6.1h-6.9V98h7v68zm17.6 0h-7.6l29.3-68h6.8l29.2 68h-7.7l-7.5-17.9h-35.2L328 166zm10-24.2h29.9l-15-36-15 36zM443.6 156h.2V98h7v68h-8.7l-39.5-58.5h-.2V166h-7V98h8.7l39.5 58zM30.8 297H24v-61.8H1.2V229h52.4v6.2H30.8V297zm97.3-34c0 5.2-1 10-2.7 14.3a34.3 34.3 0 01-32.8 21.4 36.7 36.7 0 01-25.3-10 35 35 0 01-10-25.7c0-5.2.8-10 2.6-14.3a34 34 0 0132.7-21.4 36 36 0 0125.3 10.2c3.2 3.1 5.7 6.9 7.5 11.2 1.8 4.4 2.7 9.1 2.7 14.3zm-7.3 0c0-4-.7-7.7-2-11.3a27.8 27.8 0 00-14.4-16 27.6 27.6 0 00-11.8-2.3 26.5 26.5 0 00-20.6 9 27.8 27.8 0 00-5.6 9.3 33.4 33.4 0 005.6 32 27.1 27.1 0 0020.6 8.9 27.6 27.6 0 0020.7-8.8c2.4-2.7 4.3-5.9 5.6-9.5 1.2-3.5 1.9-7.3 1.9-11.3zm88.8 0c0 5.2-.9 10-2.7 14.3a34.3 34.3 0 01-32.7 21.4 36.7 36.7 0 01-25.3-10 35 35 0 01-10.1-25.7c0-5.2.9-10 2.7-14.3a34 34 0 0132.7-21.4 36 36 0 0125.3 10.2c3.2 3.1 5.7 6.9 7.4 11.2 1.8 4.4 2.7 9.1 2.7 14.3zm-7.3 0c0-4-.6-7.7-1.9-11.3a27.8 27.8 0 00-14.5-16 27.6 27.6 0 00-11.7-2.3 26.5 26.5 0 00-20.6 9 27.8 27.8 0 00-5.6 9.3 33.4 33.4 0 005.6 32 27.1 27.1 0 0020.6 8.9 27.6 27.6 0 0020.6-8.8c2.5-2.7 4.3-5.9 5.6-9.5 1.3-3.5 2-7.3 2-11.3zM231 291h31.7v6.1H224v-68h7V291zm75-51a17 17 0 00-14-6.8c-1.7 0-3.4.3-5.1.8a14.2 14.2 0 00-8.2 6.4c-.8 1.6-1.3 3.5-1.3 5.6a10.4 10.4 0 004.6 9c1.4 1 3 1.8 4.7 2.5a277 277 0 0012.6 4.4c2.5.9 4.6 2 6.6 3.5 1.9 1.4 3.4 3.3 4.7 5.5a17 17 0 011.8 8.3 18.4 18.4 0 01-14.2 18.5 28.2 28.2 0 01-14.1.5 26 26 0 01-11-5 23 23 0 01-4.3-4.5l6-4.4c1.4 2.5 3.5 4.5 6.1 6.2a19.2 19.2 0 0014.7 1.6c1.8-.6 3.4-1.4 4.8-2.5 1.5-1.1 2.6-2.5 3.5-4.1 1-1.7 1.5-3.6 1.5-5.8 0-2.3-.5-4.3-1.5-5.8-.9-1.6-2-3-3.6-4-1.5-1-3.3-2-5.3-2.7-2-.7-4-1.4-6.2-2l-6.6-2.5a17.5 17.5 0 01-10-8.8c-1.2-2.1-1.7-4.7-1.7-7.8 0-3.2.7-6 2-8.4 1.3-2.4 3-4.3 5.1-5.9 2.1-1.5 4.5-2.6 7-3.3a28.5 28.5 0 0119.4 1.4c3.3 1.6 5.8 3.5 7.4 5.8L306 240z" fill="#888"/>
  <defs>
    <linearGradient id="paint0_linear" x1="656.1" y1="180.4" x2="628.3" y2="194.9" gradientUnits="userSpaceOnUse">
      <stop stop-color="#A4730A"/>
      <stop offset="1" stop-color="#D5960C"/>
    </linearGradient>
  </defs>
</svg>
